<svg xmlns="http://www.w3.org/2000/svg" width="560" height="300" viewBox="0 0 560 300"><rect x="0" y="0" width="560" height="300" fill="#fff"/><g font-family="Consolas, monospace" font-size="11"><text x="301.0" y="16.0" text-anchor="middle" fill="#222" font-size="13">data_out reproj L 分布</text><line x1="56" y1="258" x2="546" y2="258" stroke="#555"/><line x1="56" y1="30" x2="56" y2="258" stroke="#555"/><text x="301.0" y="292.0" text-anchor="middle" fill="#444">误差 (px)</text><text x="12" y="144.0" text-anchor="middle" fill="#444" transform="rotate(-90 12 144.0)">帧数</text><line x1="56" y1="201.0" x2="546" y2="201.0" stroke="#ddd"/><text x="50" y="205.0" text-anchor="end" fill="#555">2</text><line x1="56" y1="144.0" x2="546" y2="144.0" stroke="#ddd"/><text x="50" y="148.0" text-anchor="end" fill="#555">5</text><line x1="56" y1="87.0" x2="546" y2="87.0" stroke="#ddd"/><text x="50" y="91.0" text-anchor="end" fill="#555">7</text><line x1="56" y1="30.0" x2="546" y2="30.0" stroke="#ddd"/><text x="50" y="34.0" text-anchor="end" fill="#555">9</text><rect x="58.0" y="207.3" width="20.6" height="50.7" fill="#468"/><text x="68.3" y="272.0" text-anchor="middle" fill="#555">0.034</text><rect x="82.5" y="258.0" width="20.6" height="0.5" fill="#468"/><rect x="107.0" y="232.7" width="20.6" height="25.3" fill="#468"/><text x="117.3" y="272.0" text-anchor="middle" fill="#555">0.036</text><rect x="131.5" y="207.3" width="20.6" height="50.7" fill="#468"/><rect x="156.0" y="182.0" width="20.6" height="76.0" fill="#468"/><text x="166.3" y="272.0" text-anchor="middle" fill="#555">0.037</text><rect x="180.5" y="156.7" width="20.6" height="101.3" fill="#468"/><rect x="205.0" y="106.0" width="20.6" height="152.0" fill="#468"/><text x="215.3" y="272.0" text-anchor="middle" fill="#555">0.039</text><rect x="229.5" y="30.0" width="20.6" height="228.0" fill="#468"/><rect x="254.0" y="80.7" width="20.6" height="177.3" fill="#468"/><text x="264.3" y="272.0" text-anchor="middle" fill="#555">0.041</text><rect x="278.5" y="182.0" width="20.6" height="76.0" fill="#468"/><rect x="303.0" y="258.0" width="20.6" height="0.5" fill="#468"/><text x="313.3" y="272.0" text-anchor="middle" fill="#555">0.042</text><rect x="327.5" y="258.0" width="20.6" height="0.5" fill="#468"/><rect x="352.0" y="182.0" width="20.6" height="76.0" fill="#468"/><text x="362.3" y="272.0" text-anchor="middle" fill="#555">0.044</text><rect x="376.5" y="232.7" width="20.6" height="25.3" fill="#468"/><rect x="401.0" y="232.7" width="20.6" height="25.3" fill="#468"/><text x="411.3" y="272.0" text-anchor="middle" fill="#555">0.046</text><rect x="425.5" y="258.0" width="20.6" height="0.5" fill="#468"/><rect x="450.0" y="232.7" width="20.6" height="25.3" fill="#468"/><text x="460.3" y="272.0" text-anchor="middle" fill="#555">0.047</text><rect x="474.5" y="258.0" width="20.6" height="0.5" fill="#468"/><rect x="499.0" y="258.0" width="20.6" height="0.5" fill="#468"/><text x="509.3" y="272.0" text-anchor="middle" fill="#555">0.049</text><rect x="523.5" y="232.7" width="20.6" height="25.3" fill="#468"/></g></svg>