<svg xmlns="http://www.w3.org/2000/svg" width="860" height="380" viewBox="0 0 860 380"><rect x="0" y="0" width="860" height="380" fill="#fff"/><g font-family="Consolas, monospace" font-size="11"><text x="457.0" y="20.0" text-anchor="middle" fill="#222" font-size="13">CESHI261003-1 逐帧误差</text><line x1="72" y1="334" x2="842" y2="334" stroke="#555"/><line x1="72" y1="34" x2="72" y2="334" stroke="#555"/><text x="457.0" y="372.0" text-anchor="middle" fill="#444">view#</text><text x="12" y="184.0" text-anchor="middle" fill="#444" transform="rotate(-90 12 184.0)">误差 (px)</text><line x1="72" y1="259.0" x2="842" y2="259.0" stroke="#ddd"/><text x="66" y="263.0" text-anchor="end" fill="#555">0.323</text><line x1="72" y1="184.0" x2="842" y2="184.0" stroke="#ddd"/><text x="66" y="188.0" text-anchor="end" fill="#555">0.647</text><line x1="72" y1="109.0" x2="842" y2="109.0" stroke="#ddd"/><text x="66" y="113.0" text-anchor="end" fill="#555">0.970</text><line x1="72" y1="34.0" x2="842" y2="34.0" stroke="#ddd"/><text x="66" y="38.0" text-anchor="end" fill="#555">1.29</text><text x="66" y="338.0" text-anchor="end" fill="#555">0</text><line x1="72" y1="331.2" x2="842" y2="331.2" stroke="#c33" stroke-dasharray="6 4"/><text x="842" y="326.2" text-anchor="end" fill="#c33">reproj 阈值 0.012</text><line x1="72" y1="322.4" x2="842" y2="322.4" stroke="#36c" stroke-dasharray="6 4"/><text x="842" y="317.4" text-anchor="end" fill="#36c">epipolar 阈值 0.050</text><rect x="72.6" y="324.4" width="3.9" height="9.6" fill="#468"/><rect x="88.0" y="326.2" width="3.9" height="7.8" fill="#468"/><rect x="103.4" y="323.1" width="3.9" height="10.9" fill="#468"/><rect x="118.8" y="325.3" width="3.9" height="8.7" fill="#468"/><rect x="134.2" y="324.7" width="3.9" height="9.3" fill="#468"/><rect x="149.6" y="321.8" width="3.9" height="12.2" fill="#468"/><rect x="165.0" y="321.6" width="3.9" height="12.4" fill="#468"/><rect x="180.4" y="320.5" width="3.9" height="13.5" fill="#468"/><rect x="195.8" y="314.7" width="3.9" height="19.3" fill="#468"/><rect x="211.2" y="311.9" width="3.9" height="22.1" fill="#468"/><rect x="226.6" y="321.0" width="3.9" height="13.0" fill="#468"/><rect x="242.0" y="322.9" width="3.9" height="11.1" fill="#468"/><rect x="257.4" y="305.9" width="3.9" height="28.1" fill="#468"/><rect x="272.8" y="322.8" width="3.9" height="11.2" fill="#468"/><rect x="288.2" y="323.1" width="3.9" height="10.9" fill="#468"/><rect x="303.6" y="324.2" width="3.9" height="9.8" fill="#468"/><rect x="319.0" y="323.1" width="3.9" height="10.9" fill="#468"/><rect x="334.4" y="319.3" width="3.9" height="14.7" fill="#468"/><rect x="349.8" y="324.2" width="3.9" height="9.8" fill="#468"/><rect x="365.2" y="319.4" width="3.9" height="14.6" fill="#468"/><rect x="380.6" y="324.2" width="3.9" height="9.8" fill="#468"/><rect x="396.0" y="317.7" width="3.9" height="16.3" fill="#468"/><rect x="411.4" y="319.9" width="3.9" height="14.1" fill="#468"/><rect x="426.8" y="320.3" width="3.9" height="13.7" fill="#468"/><rect x="442.2" y="316.3" width="3.9" height="17.7" fill="#468"/><rect x="457.6" y="310.3" width="3.9" height="23.7" fill="#468"/><rect x="473.0" y="320.7" width="3.9" height="13.3" fill="#468"/><rect x="488.4" y="321.3" width="3.9" height="12.7" fill="#468"/><rect x="503.8" y="317.2" width="3.9" height="16.8" fill="#468"/><rect x="519.2" y="317.5" width="3.9" height="16.5" fill="#468"/><rect x="534.6" y="313.9" width="3.9" height="20.1" fill="#468"/><rect x="550.0" y="317.5" width="3.9" height="16.5" fill="#468"/><rect x="565.4" y="317.8" width="3.9" height="16.2" fill="#468"/><rect x="580.8" y="316.7" width="3.9" height="17.3" fill="#468"/><rect x="596.2" y="314.8" width="3.9" height="19.2" fill="#468"/><rect x="611.6" y="323.4" width="3.9" height="10.6" fill="#468"/><rect x="627.0" y="321.8" width="3.9" height="12.2" fill="#468"/><rect x="642.4" y="316.2" width="3.9" height="17.8" fill="#468"/><rect x="657.8" y="314.2" width="3.9" height="19.8" fill="#468"/><rect x="673.2" y="317.1" width="3.9" height="16.9" fill="#468"/><rect x="688.6" y="316.3" width="3.9" height="17.7" fill="#468"/><rect x="704.0" y="323.6" width="3.9" height="10.4" fill="#468"/><rect x="719.4" y="323.0" width="3.9" height="11.0" fill="#468"/><rect x="734.8" y="323.9" width="3.9" height="10.1" fill="#468"/><rect x="750.2" y="310.7" width="3.9" height="23.3" fill="#468"/><rect x="765.6" y="317.2" width="3.9" height="16.8" fill="#468"/><rect x="781.0" y="324.3" width="3.9" height="9.7" fill="#468"/><rect x="796.4" y="325.3" width="3.9" height="8.7" fill="#468"/><rect x="811.8" y="325.0" width="3.9" height="9.0" fill="#468"/><rect x="827.2" y="325.8" width="3.9" height="8.2" fill="#468"/><rect x="77.7" y="323.8" width="3.9" height="10.2" fill="#864"/><rect x="93.1" y="318.6" width="3.9" height="15.4" fill="#864"/><rect x="108.5" y="321.6" width="3.9" height="12.4" fill="#864"/><rect x="123.9" y="322.6" width="3.9" height="11.4" fill="#864"/><rect x="139.3" y="323.4" width="3.9" height="10.6" fill="#864"/><rect x="154.7" y="308.0" width="3.9" height="26.0" fill="#864"/><rect x="170.1" y="312.4" width="3.9" height="21.6" fill="#864"/><rect x="185.5" y="324.1" width="3.9" height="9.9" fill="#864"/><rect x="200.9" y="318.7" width="3.9" height="15.3" fill="#864"/><rect x="216.3" y="321.5" width="3.9" height="12.5" fill="#864"/><rect x="231.7" y="325.3" width="3.9" height="8.7" fill="#864"/><rect x="247.1" y="323.8" width="3.9" height="10.2" fill="#864"/><rect x="262.5" y="323.8" width="3.9" height="10.2" fill="#864"/><rect x="277.9" y="324.2" width="3.9" height="9.8" fill="#864"/><rect x="293.3" y="315.4" width="3.9" height="18.6" fill="#864"/><rect x="308.7" y="315.6" width="3.9" height="18.4" fill="#864"/><rect x="324.1" y="323.0" width="3.9" height="11.0" fill="#864"/><rect x="339.5" y="318.2" width="3.9" height="15.8" fill="#864"/><rect x="354.9" y="322.9" width="3.9" height="11.1" fill="#864"/><rect x="370.3" y="321.2" width="3.9" height="12.8" fill="#864"/><rect x="385.7" y="320.8" width="3.9" height="13.2" fill="#864"/><rect x="401.1" y="319.7" width="3.9" height="14.3" fill="#864"/><rect x="416.5" y="322.2" width="3.9" height="11.8" fill="#864"/><rect x="431.9" y="323.5" width="3.9" height="10.5" fill="#864"/><rect x="447.3" y="322.4" width="3.9" height="11.6" fill="#864"/><rect x="462.7" y="326.5" width="3.9" height="7.5" fill="#864"/><rect x="478.1" y="326.0" width="3.9" height="8.0" fill="#864"/><rect x="493.5" y="322.7" width="3.9" height="11.3" fill="#864"/><rect x="508.9" y="324.1" width="3.9" height="9.9" fill="#864"/><rect x="524.3" y="323.1" width="3.9" height="10.9" fill="#864"/><rect x="539.7" y="321.6" width="3.9" height="12.4" fill="#864"/><rect x="555.1" y="325.8" width="3.9" height="8.2" fill="#864"/><rect x="570.5" y="325.7" width="3.9" height="8.3" fill="#864"/><rect x="585.9" y="320.7" width="3.9" height="13.3" fill="#864"/><rect x="601.3" y="320.5" width="3.9" height="13.5" fill="#864"/><rect x="616.7" y="322.2" width="3.9" height="11.8" fill="#864"/><rect x="632.1" y="322.3" width="3.9" height="11.7" fill="#864"/><rect x="647.5" y="321.3" width="3.9" height="12.7" fill="#864"/><rect x="662.9" y="320.9" width="3.9" height="13.1" fill="#864"/><rect x="678.3" y="325.4" width="3.9" height="8.6" fill="#864"/><rect x="693.7" y="326.5" width="3.9" height="7.5" fill="#864"/><rect x="709.1" y="314.0" width="3.9" height="20.0" fill="#864"/><rect x="724.5" y="312.5" width="3.9" height="21.5" fill="#864"/><rect x="739.9" y="319.1" width="3.9" height="14.9" fill="#864"/><rect x="755.3" y="317.7" width="3.9" height="16.3" fill="#864"/><rect x="770.7" y="314.9" width="3.9" height="19.1" fill="#864"/><rect x="786.1" y="322.6" width="3.9" height="11.4" fill="#864"/><rect x="801.5" y="324.4" width="3.9" height="9.6" fill="#864"/><rect x="816.9" y="324.8" width="3.9" height="9.2" fill="#864"/><rect x="832.3" y="311.2" width="3.9" height="22.8" fill="#864"/><rect x="82.9" y="115.8" width="3.9" height="218.2" fill="#484"/><rect x="98.3" y="163.8" width="3.9" height="170.2" fill="#484"/><rect x="113.7" y="186.4" width="3.9" height="147.6" fill="#484"/><rect x="129.1" y="171.2" width="3.9" height="162.8" fill="#484"/><rect x="144.5" y="210.5" width="3.9" height="123.5" fill="#484"/><rect x="159.9" y="223.3" width="3.9" height="110.7" fill="#484"/><rect x="175.3" y="223.5" width="3.9" height="110.5" fill="#484"/><rect x="190.7" y="240.1" width="3.9" height="93.9" fill="#484"/><rect x="206.1" y="246.9" width="3.9" height="87.1" fill="#484"/><rect x="221.5" y="262.4" width="3.9" height="71.6" fill="#484"/><rect x="236.9" y="247.7" width="3.9" height="86.3" fill="#484"/><rect x="252.3" y="135.4" width="3.9" height="198.6" fill="#484"/><rect x="267.7" y="98.4" width="3.9" height="235.6" fill="#484"/><rect x="283.1" y="192.0" width="3.9" height="142.0" fill="#484"/><rect x="298.5" y="212.8" width="3.9" height="121.2" fill="#484"/><rect x="313.9" y="203.9" width="3.9" height="130.1" fill="#484"/><rect x="329.3" y="253.9" width="3.9" height="80.1" fill="#484"/><rect x="344.7" y="198.8" width="3.9" height="135.2" fill="#484"/><rect x="360.1" y="164.1" width="3.9" height="169.9" fill="#484"/><rect x="375.5" y="165.7" width="3.9" height="168.3" fill="#484"/><rect x="390.9" y="169.3" width="3.9" height="164.7" fill="#484"/><rect x="406.3" y="272.7" width="3.9" height="61.3" fill="#484"/><rect x="421.7" y="130.3" width="3.9" height="203.7" fill="#484"/><rect x="437.1" y="50.0" width="3.9" height="284.0" fill="#484"/><rect x="452.5" y="270.3" width="3.9" height="63.7" fill="#484"/><rect x="467.9" y="292.6" width="3.9" height="41.4" fill="#484"/><rect x="483.3" y="34.0" width="3.9" height="300.0" fill="#484"/><rect x="498.7" y="176.6" width="3.9" height="157.4" fill="#484"/><rect x="514.1" y="146.5" width="3.9" height="187.5" fill="#484"/><rect x="529.5" y="143.7" width="3.9" height="190.3" fill="#484"/><rect x="544.9" y="106.6" width="3.9" height="227.4" fill="#484"/><rect x="560.3" y="246.4" width="3.9" height="87.6" fill="#484"/><rect x="575.7" y="250.6" width="3.9" height="83.4" fill="#484"/><rect x="591.1" y="135.7" width="3.9" height="198.3" fill="#484"/><rect x="606.5" y="72.7" width="3.9" height="261.3" fill="#484"/><rect x="621.9" y="195.2" width="3.9" height="138.8" fill="#484"/><rect x="637.3" y="286.6" width="3.9" height="47.4" fill="#484"/><rect x="652.7" y="237.8" width="3.9" height="96.2" fill="#484"/><rect x="668.1" y="131.8" width="3.9" height="202.2" fill="#484"/><rect x="683.5" y="295.8" width="3.9" height="38.2" fill="#484"/><rect x="698.9" y="262.9" width="3.9" height="71.1" fill="#484"/><rect x="714.3" y="273.9" width="3.9" height="60.1" fill="#484"/><rect x="729.7" y="261.9" width="3.9" height="72.1" fill="#484"/><rect x="745.1" y="247.1" width="3.9" height="86.9" fill="#484"/><rect x="760.5" y="128.0" width="3.9" height="206.0" fill="#484"/><rect x="775.9" y="260.4" width="3.9" height="73.6" fill="#484"/><rect x="791.3" y="145.4" width="3.9" height="188.6" fill="#484"/><rect x="806.7" y="166.0" width="3.9" height="168.0" fill="#484"/><rect x="822.1" y="166.0" width="3.9" height="168.0" fill="#484"/><rect x="837.5" y="150.0" width="3.9" height="184.0" fill="#484"/><text x="79.7" y="348.0" text-anchor="middle" fill="#555">1</text><text x="125.9" y="348.0" text-anchor="middle" fill="#555">4</text><text x="172.1" y="348.0" text-anchor="middle" fill="#555">7</text><text x="218.3" y="348.0" text-anchor="middle" fill="#555">10</text><text x="264.5" y="348.0" text-anchor="middle" fill="#555">13</text><text x="310.7" y="348.0" text-anchor="middle" fill="#555">16</text><text x="356.9" y="348.0" text-anchor="middle" fill="#555">19</text><text x="403.1" y="348.0" text-anchor="middle" fill="#555">22</text><text x="449.3" y="348.0" text-anchor="middle" fill="#555">25</text><text x="495.5" y="348.0" text-anchor="middle" fill="#555">28</text><text x="541.7" y="348.0" text-anchor="middle" fill="#555">31</text><text x="587.9" y="348.0" text-anchor="middle" fill="#555">34</text><text x="634.1" y="348.0" text-anchor="middle" fill="#555">37</text><text x="680.3" y="348.0" text-anchor="middle" fill="#555">40</text><text x="726.5" y="348.0" text-anchor="middle" fill="#555">43</text><text x="772.7" y="348.0" text-anchor="middle" fill="#555">46</text><text x="818.9" y="348.0" text-anchor="middle" fill="#555">49</text><rect x="763.2" y="14.0" width="10" height="10" fill="#484"/><text x="777.2" y="23.0" fill="#333">epipolar</text><rect x="684.4" y="14.0" width="10" height="10" fill="#864"/><text x="698.4" y="23.0" fill="#333">reproj R</text><rect x="605.6" y="14.0" width="10" height="10" fill="#468"/><text x="619.6" y="23.0" fill="#333">reproj L</text></g></svg>